<?xml version="1.0" encoding="UTF-8" standalone="no"?>
<svg
   width="74.768761mm"
   height="86.599724mm"
   viewBox="0 0 74.768761 86.599724"
   version="1.1"
   xmlns="http://www.w3.org/2000/svg">
  <g
     transform="translate(-75.233545,-78.436926)">
    <path
       style="fill:#ffffff"
       d="m 113.44527,78.43759 c -0.27646,-0.0017 -0.55234,-1.97e-4 -0.82734,0.0046 -8.30404,0.146371 -16.950922,3.79759 -23.069391,9.413896 -5.531985,5.077958 -9.858826,13.040054 -10.261906,20.054594 -0.866848,15.0851 4.957229,23.1769 7.183024,26.63713 1.492858,2.3208 4.854926,5.23338 3.865398,7.80934 -1.745128,4.54295 -4.710325,2.00008 -13.933517,2.4784 -3.957232,0.20523 3.004083,8.8124 8.021733,9.85677 5.01764,1.04437 8.564507,0.7337 11.974979,-1.59215 1.725358,5.238 -8.158526,5.58796 -11.0262,7.80727 -3.795992,2.93775 14.479434,6.38394 20.73827,2.15646 2.40289,-1.62302 5.17794,-4.48648 6.50761,-6.75153 1.32968,2.26505 4.10472,5.12851 6.50762,6.75153 6.25883,4.22748 24.53426,0.78129 20.73826,-2.15646 -2.86766,-2.21931 -12.75154,-2.56927 -11.0262,-7.80727 3.41048,2.32585 6.95735,2.63652 11.97498,1.59215 5.01766,-1.04437 11.97896,-9.65154 8.02174,-9.85677 -9.22319,-0.47832 -12.18839,2.06455 -13.93352,-2.4784 -0.98953,-2.57596 3.49133,-5.92004 4.98419,-8.24084 2.2258,-3.46023 6.65668,-11.91066 5.78983,-26.99577 -0.40308,-7.01452 -3.14727,-14.682946 -8.2734,-19.569862 -6.17131,-5.883323 -15.38575,-9.061282 -23.95616,-9.113138 z m 9.08472,37.30883 c 0.21621,0.004 0.43474,0.0143 0.65474,0.0326 7.63939,0.64634 9.36872,9.35254 6.01979,10.61382 -3.34893,1.26127 -0.57539,-6.22869 -6.46731,-6.58306 -5.52415,-0.33226 -4.56132,7.58074 -7.40368,5.60948 -2.75354,-1.90964 0.49372,-9.77764 7.19646,-9.6728 z m -21.2664,0.62684 v 5.2e-4 c 6.70274,-0.10484 9.94999,7.76263 7.19646,9.67227 -2.84236,1.97126 -1.87953,-5.94173 -7.40369,-5.60947 -5.891922,0.35437 -3.118371,7.84433 -6.467302,6.58306 -3.34893,-1.26128 -1.619612,-9.96697 6.019792,-10.61331 0.22,-0.0183 0.43853,-0.0291 0.65474,-0.0331 z m 6.89467,16.57831 c 1.09785,-0.0107 2.69827,1.09865 3.74447,1.09865 1.36646,0 3.51964,-1.75836 4.43539,-0.71004 0.91575,1.04832 -0.79525,3.42822 -4.43539,3.42822 -3.64013,0 -5.48389,-2.24564 -4.58112,-3.42822 0.21159,-0.27717 0.50057,-0.38534 0.83665,-0.38861 z" />
  </g>
</svg>

